<svg data-v-0dd9719b="" version="1.0" xmlns="http://www.w3.org/2000/svg" xmlns:xlink="http://www.w3.org/1999/xlink" width="100%" height="100%" viewBox="0 0 340.000000 250.000000" preserveAspectRatio="xMidYMid meet" color-interpolation-filters="sRGB" style="margin: auto;"> <rect data-v-0dd9719b="" x="0" y="0" width="100%" height="100%" fill="#feffff" fill-opacity="1" class="background"></rect> <rect data-v-0dd9719b="" x="0" y="0" width="100%" height="100%" fill="url(#watermark)" fill-opacity="1" class="watermarklayer"></rect> <g data-v-0dd9719b="" fill="#0077c0" class="icon-text-wrapper icon-svg-group iconsvg" transform="translate(52.855003356933594,94.95914268493652)"><g class="iconsvg-imagesvg" transform="translate(0,0)"><g><rect fill="#0077c0" fill-opacity="0" stroke-width="2" x="0" y="0" width="60" height="60.081711127132905" class="image-rect"></rect> <svg filter="url(#colors8912792443)" x="0" y="0" width="60" height="60.081711127132905" filtersec="colorsf466929344" class="image-svg-svg primary" style="overflow: visible;"><svg xmlns="http://www.w3.org/2000/svg" viewBox="0 0 77.3 77.4"><path d="M75.3 38.7c0 20.3-16.4 36.7-36.7 36.7C18.4 75.3 2 58.9 2 38.7 2 18.4 18.4 2 38.7 2c20.2 0 36.6 16.4 36.6 36.7zM24.2 72.4v-4.1C24.2 53.4 9.3 49.8 2 40.5m33.2 34.7V64.3c0-19.6-26-19.6-26-39.3v-8.1m37 57.7V60.3c0-19.6-26-19.6-26-39.3V7m11-4.2V17c0 19.6 26 19.6 26 39.3v14m-15-68.1V13c0 19.6 26 19.6 26 39.3v8.1M53.2 5v4c0 14.9 14.9 18.5 22.1 27.8" fill="none" stroke="#202121" stroke-width="4" stroke-miterlimit="10"></path></svg></svg> <defs><filter id="colors8912792443"><feColorMatrix type="matrix" values="0 0 0 0 0  0 0 0 0 0.46484375  0 0 0 0 0.75  0 0 0 1 0" class="icon-fecolormatrix"></feColorMatrix></filter> <filter id="colorsf466929344"><feColorMatrix type="matrix" values="0 0 0 0 0.99609375  0 0 0 0 0.99609375  0 0 0 0 0.99609375  0 0 0 1 0" class="icon-fecolormatrix"></feColorMatrix></filter> <filter id="colorsb9254355445"><feColorMatrix type="matrix" values="0 0 0 0 0  0 0 0 0 0  0 0 0 0 0  0 0 0 1 0" class="icon-fecolormatrix"></feColorMatrix></filter></defs></g></g> <g transform="translate(67,2.909608840942383)"><g data-gra="path-name" fill-rule="" class="tp-name iconsvg-namesvg" transform="translate(0,0)"><g transform="scale(1)"><g><path d="M22.17-34.1L26.37-34.94 28.05-29.56 33.09-29.56Q33.93-29.56 36.45-29.73L36.45-29.73Q39.14-29.73 39.81-29.73L39.81-29.73 39.81-26.2Q39.47-26.2 37.96-26.2L37.96-26.2Q35.61-26.37 34.6-26.37L34.6-26.37Q31.24-21.16 27.71-18.31L27.71-18.31Q34.27-16.13 41.15-16.46L41.15-16.46Q39.81-14.78 39.3-11.93L39.3-11.93Q28.89-13.94 25.03-16.29L25.03-16.29Q19.32-13.61 12.09-11.76L12.09-11.76Q11.59-13.61 9.57-15.45L9.57-15.45Q15.79-15.96 22.34-18.48L22.34-18.48Q18.98-21.16 16.63-24.02L16.63-24.02 20.16-25.36Q22.17-22.34 25.2-20.16L25.2-20.16Q27.88-21.84 30.74-26.54L30.74-26.54 19.48-26.54Q16.8-26.54 13.1-26.2L13.1-26.2 13.1-29.9Q17.13-29.56 19.48-29.56L19.48-29.56 24.19-29.56Q23.52-31.75 22.17-34.1L22.17-34.1ZM4.03-31.24L6.55-33.93Q10.41-31.07 12.6-29.06L12.6-29.06 9.91-26.2Q6.89-29.56 4.03-31.24L4.03-31.24ZM1.85-21.16L3.86-24.19Q5.88-23.18 10.08-20.49L10.08-20.49Q10.75-19.99 11.09-19.82L11.09-19.82 8.73-16.8Q6.21-18.81 1.85-21.16L1.85-21.16ZM6.55-14.11L6.55-14.11 10.08-11.42Q8.4-2.18 6.72 3.19L6.72 3.19 2.52 0.67Q5.38-4.37 6.55-14.11ZM28.72-13.27L28.72-13.27Q33.43-12.93 33.26-12.6L33.26-12.6Q33.26-12.26 33.09-11.76L33.09-11.76Q32.75-11.09 32.75-10.58L32.75-10.58Q32.59-3.36 32.75 3.86L32.75 3.86 28.55 3.86Q28.72 2.69 28.89-2.69L28.89-2.69Q28.89-9.24 28.72-13.27ZM23.18-12.6L23.18-12.6Q23.18-12.43 23.01-12.09L23.01-12.09Q22.51-11.59 22.51-10.92L22.51-10.92Q22.17-3.53 19.99-0.67L19.99-0.67Q17.3 2.35 13.27 4.37L13.27 4.37Q12.77 3.19 10.25 1.34L10.25 1.34Q15.45-0.17 17.3-3.02L17.3-3.02Q19.15-5.88 18.64-13.44L18.64-13.44Q23.18-12.93 23.18-12.6ZM62.15-34.6L62.15-34.6Q66.01-34.77 67.02-33.93L67.02-33.93Q67.19-33.76 66.85-33.26L66.85-33.26Q65.84-31.91 65.84-29.39L65.84-29.39 76.93-29.39Q80.12-29.39 83.31-29.73L83.31-29.73 83.31-25.87Q80.29-26.2 77.1-26.2L77.1-26.2 65.84-26.2 65.84-21.84 74.07-21.84Q77.77-21.84 80.29-22.17L80.29-22.17Q80.29-22.17 80.29-21.67L80.29-21.67Q80.12-19.32 80.12-16.63L80.12-16.63 80.12 0.5Q80.12 2.52 78.95 3.02L78.95 3.02Q78.27 3.53 73.23 4.03L73.23 4.03Q73.23 2.02 71.55 0L71.55 0Q77.27 0.67 76.76-1.34L76.76-1.34 76.76-18.81 52.41-18.81 52.41-1.51Q52.57 4.03 52.57 4.03L52.57 4.03 48.71 4.03Q49.05 2.02 49.05-1.34L49.05-1.34 49.05-16.63Q49.05-19.15 48.71-21.5L48.71-21.5Q48.71-22 48.71-22.17L48.71-22.17Q51.06-21.84 53.92-21.84L53.92-21.84 62.32-21.84 62.32-26.04 51.73-26.04Q46.7-26.04 45.52-25.7L45.52-25.7 45.52-29.73Q46.7-29.39 52.07-29.39L52.07-29.39 62.32-29.39 62.32-32.08Q62.32-33.76 62.15-34.6ZM67.36-18.31L67.36-18.31Q71.55-17.13 71.55-16.96L71.55-16.96Q71.55-16.8 71.22-16.46L71.22-16.46Q69.71-15.12 68.36-12.43L68.36-12.43 70.38-12.43Q70.88-12.43 74.07-12.6L74.07-12.6 74.07-9.57Q74.24-9.74 70.04-9.74L70.04-9.74 65.68-9.74 65.68-6.38 70.38-6.38Q71.72-6.38 74.24-6.55L74.24-6.55 74.24-3.7Q71.72-3.86 70.38-3.86L70.38-3.86 65.68-3.86 65.68-0.84Q65.68 1.34 66.01 3.36L66.01 3.36 62.15 3.36Q62.48 2.18 62.48-0.84L62.48-0.84 62.48-3.86 58.12-3.86Q56.94-3.86 53.92-3.7L53.92-3.7 53.92-6.55Q56.27-6.38 58.12-6.38L58.12-6.38 62.48-6.38 62.48-9.74 58.62-9.74Q57.95-9.74 54.76-9.57L54.76-9.57 54.76-12.6Q56.77-12.43 58.45-12.43L58.45-12.43 65.51-12.43Q67.19-15.62 67.36-18.31ZM57.61-17.13L60.64-18.31Q61.48-17.13 62.48-14.28L62.48-14.28 59.46-13.1Q58.62-15.96 57.61-17.13L57.61-17.13ZM110.19-31.75L112.71-34.6Q118.25-31.41 124.3-27.04L124.3-27.04 120.94-23.85Q116.74-28.05 110.19-31.75L110.19-31.75ZM100.11-34.43L100.11-34.43Q102.46-33.43 103.97-32.42L103.97-32.42Q104.48-32.08 103.64-31.75L103.64-31.75Q102.46-31.24 101.96-30.74L101.96-30.74Q97.42-26.2 92.55-22.34L92.55-22.34Q91.38-23.68 88.86-24.69L88.86-24.69Q95.74-28.22 100.11-34.43ZM105.32-28.22L105.32-28.22Q108-27.71 110.02-26.88L110.02-26.88Q110.52-26.71 109.68-26.2L109.68-26.2Q109.18-26.04 109.18-25.87L109.18-25.87Q109.18-23.35 114.72-19.32L114.72-19.32Q120.94-15.62 126.82-15.12L126.82-15.12Q125.14-13.27 124.3-10.92L124.3-10.92Q122.62-11.42 118.92-12.93L118.92-12.93Q118.59-11.09 118.59-8.4L118.59-8.4 118.59-0.84Q118.59 1.01 118.92 3.86L118.92 3.86 115.06 3.86Q115.23 2.35 115.23 0.67L115.23 0.67 98.93 0.67Q99.1 3.86 99.1 3.86L99.1 3.86 95.24 3.86Q95.41 2.35 95.41-0.5L95.41-0.5 95.41-8.06Q95.41-10.08 95.24-11.76L95.24-11.76Q93.05-10.41 90.87-9.24L90.87-9.24Q89.53-11.59 87.68-12.26L87.68-12.26Q94.73-14.78 97.93-17.97L97.93-17.97Q103.3-22.51 105.32-28.22ZM106.83-23.52L106.83-23.52Q103.8-17.97 97.25-13.1L97.25-13.1Q98.93-12.93 101.29-12.93L101.29-12.93 114.39-12.93Q116.91-12.93 118.42-13.27L118.42-13.27Q114.55-14.95 111.36-17.8L111.36-17.8Q109.52-19.32 106.83-23.52ZM115.06-9.91L98.93-9.91 98.93-2.18 115.06-2.18 115.06-9.91ZM162.43-34.6L162.43-34.6Q162.59-34.43 162.93-33.76L162.93-33.76Q165.11-30.4 164.78-30.07L164.78-30.07Q164.61-29.9 163.94-29.9L163.94-29.9Q161.92-30.23 159.23-29.9L159.23-29.9Q159.07-29.9 158.56-29.9L158.56-29.9Q145.29-29.06 140.42-29.06L140.42-29.06Q139.08-19.32 139.08-19.32L139.08-19.32 149.66-19.32 149.66-22.84Q149.66-26.54 149.32-27.55L149.32-27.55Q149.49-27.55 149.83-27.55L149.83-27.55Q154.36-27.21 154.2-26.71L154.2-26.71Q154.2-26.54 153.86-26.04L153.86-26.04Q153.19-25.2 153.19-23.85L153.19-23.85 153.19-19.32 161.92-19.32Q166.29-19.32 167.13-19.65L167.13-19.65 167.13-15.79Q166.12-16.46 161.92-16.46L161.92-16.46 153.19-16.46 153.19-0.67Q153.86 4.03 146.47 3.86L146.47 3.86Q145.8 1.18 144.12-0.84L144.12-0.84Q150.16 0.84 149.66-2.86L149.66-2.86 149.66-16.46 141.26-16.46Q139.41-16.46 136.05-15.62L136.05-15.62 134.88-18.64Q135.72-18.98 136.22-20.83L136.22-20.83Q137.4-25.53 137.06-32.42L137.06-32.42Q143.45-31.91 151.51-32.59L151.51-32.59Q158.9-33.26 162.43-34.6ZM141.93-13.27L141.93-13.27 146.13-10.58Q138.91-2.86 135.05 0L135.05 0Q133.2-1.34 131.02-2.18L131.02-2.18Q138.07-6.05 141.93-13.27ZM156.04-10.75L158.9-12.93Q164.44-8.73 169.14-3.36L169.14-3.36 165.11-1.01Q162.09-6.05 156.04-10.75L156.04-10.75Z" transform="translate(-1.850000023841858, 34.939998626708984)"></path></g> <!----> <!----> <!----> <!----> <!----> <!----> <!----></g></g> <g data-gra="path-slogan" fill-rule="" class="tp-slogan iconsvg-slogansvg" fill="#0077c0" transform="translate(5,46.30999755859375)"><rect x="0" height="1" y="3.9750003814697266" width="40.81999969482422"></rect> <rect height="1" y="3.9750003814697266" width="40.81999969482422" x="116.4699935913086"></rect> <g transform="translate(43.81999969482422,0)"><g transform="scale(1)"><path d="M0.19-1.92L0.19-2.77L1.27-2.77L1.27-2.16Q1.27-0.75 2.58-0.75L2.58-0.75Q3.94-0.75 3.94-2.25L3.94-2.25L3.94-8.58L5.11-8.58L5.11-2.30Q5.06 0.09 2.63 0.14L2.63 0.14Q0.33 0.09 0.19-1.92L0.19-1.92ZM7.08-8.58L8.25-8.58L8.25 0L7.08 0L7.08-8.58ZM11.63-8.58L15.94-1.64L15.94-8.58L17.06-8.58L17.06 0L15.75 0L11.39-6.94L11.34-6.94L11.34 0L10.22 0L10.22-8.58L11.63-8.58ZM24.52 0L23.67-2.48L20.20-2.48L19.31 0L18.14 0L21.38-8.58L22.69-8.58L25.78 0L24.52 0ZM21.94-7.31L20.58-3.52L23.25-3.52L21.98-7.31L21.94-7.31ZM28.22-8.58L32.53-1.64L32.53-8.58L33.66-8.58L33.66 0L32.34 0L27.98-6.94L27.94-6.94L27.94 0L26.81 0L26.81-8.58L28.22-8.58ZM45.19-3.61L42.56-3.61L42.56-4.59L46.31-4.59L46.31 0L45.56 0L45.28-1.08Q44.30 0.09 42.47 0.14L42.47 0.14Q40.73 0.14 39.80-0.75L39.80-0.75Q38.39-2.06 38.44-4.36L38.44-4.36Q38.77-8.63 42.52-8.81L42.52-8.81Q45.70-8.63 46.17-6L46.17-6L45.05-6Q44.58-7.78 42.47-7.83L42.47-7.83Q39.80-7.64 39.66-4.31L39.66-4.31Q39.66-0.75 42.52-0.75L42.52-0.75Q43.55-0.75 44.30-1.31L44.30-1.31Q45.23-2.06 45.19-3.61L45.19-3.61ZM53.77-3.19L53.77-8.58L54.94-8.58L54.94-3.05Q54.80 0.05 51.42 0.14L51.42 0.14Q48.28 0.05 48.14-2.86L48.14-2.86L48.14-8.58L49.31-8.58L49.31-3.19Q49.36-0.84 51.47-0.80L51.47-0.80Q53.77-0.84 53.77-3.19L53.77-3.19ZM56.72-8.58L57.89-8.58L57.89-1.03L62.25-1.03L62.25 0L56.72 0L56.72-8.58ZM64.69-1.03L69.84-1.03L69.84 0L63.52 0L63.52-8.58L69.75-8.58L69.75-7.59L64.69-7.59L64.69-4.92L69.38-4.92L69.38-3.89L64.69-3.89L64.69-1.03Z" transform="translate(-0.1875, 8.8125)"></path></g></g></g></g></g><defs v-gra="od"></defs></svg>